<svg data-svg-moprh="" id="smelting" xmlns="http://www.w3.org/2000/svg" viewBox="0 0 720 720">
                            <title>ba-op-morphing-smelting_mining</title>
                            <g id="shapes">
                                <path id="pol-6" d="M276.65,141.6l12.5,13.5-13.4,12.5-12.5-13.5Z" fill="#fff" fill-opacity="0" stroke="#d3cecb" stroke-linejoin="round" stroke-width="2"></path>
                                <path id="pol-5" d="M288.65,340.6l12.5,13.5-13.4,12.5-12.5-13.5Z" fill="#fff" fill-opacity="0" stroke="#d3cecb" stroke-linejoin="round" stroke-width="2"></path>
                                <path id="pol-4" d="M613.3,495l12.5,13.5L612.4,521l-12.5-13.5Z" fill="#fff" fill-opacity="0" stroke="#d3cecb" stroke-linejoin="round" stroke-width="2"></path>
                                <path id="pol-3" d="M288.6,643.3,300,655.6,287.8,667l-11.4-12.3Z" fill="#fff" fill-opacity="0" stroke="#d3cecb" stroke-linejoin="round" stroke-width="2"></path>
                                <path id="pol-2" d="M63.1,438.2l12.5,13.5L62.2,464.2,49.7,450.7Z" fill="#fff" fill-opacity="0" stroke="#d3cecb" stroke-linejoin="round" stroke-width="2"></path>
                                <path id="pol-1" d="M362.4,200.5,374.9,214l-13.4,12.5L349,213Z" fill="#fff" fill-opacity="0" stroke="#d3cecb" stroke-linejoin="round" stroke-width="2"></path>
                                <path id="rec-7" d="M504.1,440.7h-21v21h21v-21Z" fill="none" stroke="#98d2ef" stroke-linejoin="round" stroke-width="2"></path>
                                <path stroke-width="2" stroke-linejoin="round" stroke="#98d2ef" fill="none" id="rec-6" d="M52.7,279 v18 h-18 v-18 h18z"></path>
                                <path id="rec-5" d="M505.8,222.9v17h-17v-17h17m2-2h-21v21h21v-21Z" fill="#98d2ef"></path>
                                <path id="rec-4" d="M509.1,493.1v14.6H494.5V493.1h14.6m2-2H492.5v18.6h18.6V491.1Z" fill="#98d2ef"></path>
                                <path stroke-width="2" stroke-linejoin="round" stroke="#98d2ef" fill="none" id="rec-3" d="M593,374.3 v21 h-21 v-21 h21z"></path>
                                <path stroke-width="2" stroke-linejoin="round" stroke="#98d2ef" fill="none" id="rec-2" d="M380.1,304.3 v21 h-21 v-21 h21z"></path>
                                <path opacity="0" stroke-width="2" stroke-linejoin="round" stroke="#98d2ef" fill="none" id="rec-1" d="M532.3,592.9 v21 h-21 v-21 h21z"></path>
                                <path id="rey-3" d="M338.7,306.3v17h-17v-17h17m2-2h-21v21h21v-21Z" fill="#bbe1a3"></path>
                                <path id="rey-2" d="M338.7,384.4v17h-17v-17h17m2-2h-21v21h21v-21Z" fill="#bbe1a3"></path>
                                <path id="rey-1" d="M88.6,173.4v15.89H72.3V173.4H88.6m.7-.7H71.6V190H89.3V172.7Z" fill="#bbe1a3"></path>
                                <path stroke-width="2" stroke-linejoin="round" stroke="#8c8c8c" fill="none" id="crg-9" d="M380.95000000000005,353.6 C380.95000000000005,359.4542183482086,376.2042183482086,364.20000000000005,370.35,364.20000000000005,364.49578165179145,364.20000000000005,359.75,359.4542183482086,359.75,353.6,359.75,347.74578165179145,364.49578165179145,343,370.35,343,376.2042183482086,343,380.95000000000005,347.74578165179145,380.95000000000005,353.6z"></path>
                                <path stroke-width="2" stroke-linejoin="round" stroke="#d3cecb" fill="none" id="crg-8" d="M370.90000000000003,476.1 C370.90000000000003,482.0922895356664,366.0422895356664,486.95000000000005,360.05,486.95000000000005,354.05771046433364,486.95000000000005,349.2,482.0922895356664,349.2,476.1,349.2,470.10771046433365,354.05771046433364,465.25,360.05,465.25,366.0422895356664,465.25,370.90000000000003,470.10771046433365,370.90000000000003,476.1z"></path>
                                <path stroke-width="2" stroke-linejoin="round" stroke="#d3cecb" fill="none" id="crg-7" d="M163.2,216.2 C163.2,221.77807597329308,158.6780759732931,226.29999999999998,153.1,226.29999999999998,147.5219240267069,226.29999999999998,143,221.77807597329308,143,216.2,143,210.6219240267069,147.5219240267069,206.1,153.1,206.1,158.6780759732931,206.1,163.2,210.6219240267069,163.2,216.2z"></path>
                                <path stroke-width="2" stroke-linejoin="round" stroke="#d3cecb" fill="none" id="crg-6" d="M381.45000000000005,391.9 C381.45000000000005,398.0303607231241,376.48036072312414,403,370.35,403,364.2196392768759,403,359.25,398.0303607231241,359.25,391.9,359.25,385.76963927687586,364.2196392768759,380.79999999999995,370.35,380.79999999999995,376.48036072312414,380.79999999999995,381.45000000000005,385.76963927687586,381.45000000000005,391.9z"></path>
                                <path stroke-linejoin="round" stroke="#d3cecb" fill="none" id="crg-5" d="M539.9000000000001,571.5 C539.9000000000001,577.4094468231917,535.1094468231918,582.2,529.2,582.2,523.2905531768083,582.2,518.5,577.4094468231917,518.5,571.5,518.5,565.5905531768083,523.2905531768083,560.8,529.2,560.8,535.1094468231918,560.8,539.9000000000001,565.5905531768083,539.9000000000001,571.5z"></path>
                                <path stroke-width="2" stroke-linejoin="round" stroke="#d3cecb" fill="none" id="crg-4" d="M299.75,391.9 C299.75,397.75421834820855,295.00421834820855,402.5,289.15,402.5,283.2957816517914,402.5,278.54999999999995,397.75421834820855,278.54999999999995,391.9,278.54999999999995,386.0457816517914,283.2957816517914,381.29999999999995,289.15,381.29999999999995,295.00421834820855,381.29999999999995,299.75,386.0457816517914,299.75,391.9z"></path>
                                <path stroke-width="2" stroke-linejoin="round" stroke="#8c8c8c" fill="none" id="crg-3" d="M175.2,363.2 C175.2,369.82741699797197,169.827416997972,375.2,163.2,375.2,156.57258300202798,375.2,151.2,369.82741699797197,151.2,363.2,151.2,356.572583002028,156.57258300202798,351.2,163.2,351.2,169.827416997972,351.2,175.2,356.572583002028,175.2,363.2z"></path>
                                <path stroke-width="2" stroke-linejoin="round" stroke="#8c8c8c" fill="none" id="crg-2" d="M232.1,532.8 C232.1,538.4333044482762,227.5333044482762,543,221.9,543,216.2666955517238,543,211.70000000000002,538.4333044482762,211.70000000000002,532.8,211.70000000000002,527.1666955517237,216.2666955517238,522.5999999999999,221.9,522.5999999999999,227.5333044482762,522.5999999999999,232.1,527.1666955517237,232.1,532.8z"></path>
                                <path stroke-width="2" stroke-linejoin="round" stroke="#8c8c8c" fill="none" id="crg-1" d="M279.2,249 C279.2,254.6333044482762,274.6333044482762,259.2,269,259.2,263.3666955517238,259.2,258.8,254.6333044482762,258.8,249,258.8,243.3666955517238,263.3666955517238,238.8,269,238.8,274.6333044482762,238.8,279.2,243.3666955517238,279.2,249z"></path>
                                <path id="trg-4" d="M302.15,305.75l-14,20.9-13.9-20.9Z" fill="none" stroke="#bbe1a3" stroke-linejoin="round" stroke-width="2"></path>
                                <path id="trg-3" d="M145.2,571.45l-13.9,21-14-21Z" fill="none" stroke="#d3cecb" stroke-linejoin="round" stroke-width="2"></path>
                                <path id="trg-2" d="M507.85,105.8l14-20.9,13.9,20.9Z" fill="none" stroke="#bbe1a3" stroke-linejoin="round" stroke-width="2"></path>
                                <path id="trg-1" d="M316.25,364.05l14-20.9,13.9,20.9Z" fill="none" stroke="#bbe1a3" stroke-linejoin="round" stroke-width="2"></path>
                                <path opacity="0" stroke-width="2" stroke-linejoin="round" stroke="#d3cecb" fill="none" id="line-1" d="M312.1,379.7 L332.8,379.7"></path>
                                <path opacity="0" stroke-width="2" stroke-linejoin="round" stroke="#d3cecb" fill="none" id="line-2" d="M312.1,386.3 L332.8,386.3"></path>
                                <path opacity="0" stroke-width="2" stroke-linejoin="round" stroke="#d3cecb" fill="none" id="line-3" d="M312.1,392.9 L322.71,392.9"></path>
                                <path opacity="0" stroke-width="2" stroke-linejoin="round" stroke="#d3cecb" fill="none" id="line-4" d="M312.1,419.2 L332.8,419.2"></path>
                                <path opacity="0" stroke-width="2" stroke-linejoin="round" stroke="#d3cecb" fill="none" id="line-5" d="M312.1,425.9 L332.8,425.9"></path>
                                <path opacity="0" stroke-width="2" stroke-linejoin="round" stroke="#d3cecb" fill="none" id="line-6" d="M312.1,432.5 L322.71,432.5"></path>
                                <path opacity="0" stroke-width="2" stroke-linejoin="round" stroke="#d3cecb" fill="none" id="line-7" d="M312.1,459.8 L332.8,459.8"></path>
                                <path opacity="0" stroke-width="2" stroke-linejoin="round" stroke="#d3cecb" fill="none" id="line-8" d="M312.1,466.5 L332.8,466.5"></path>
                                <path opacity="0" stroke-width="2" stroke-linejoin="round" stroke="#d3cecb" fill="none" id="line-9" d="M312.1,473.1 L322.71,473.1"></path>
                                <path opacity="0" stroke-width="2" stroke-linejoin="round" stroke="#d3cecb" fill="none" id="line-10" d="M312.1,500.4 L332.8,500.4"></path>
                                <path opacity="0" stroke-width="2" stroke-linejoin="round" stroke="#d3cecb" fill="none" id="line-11" d="M312.1,507 L332.8,507"></path>
                                <path opacity="0" stroke-width="2" stroke-linejoin="round" stroke="#d3cecb" fill="none" id="line-12" d="M312.1,513.7 L322.71,513.7"></path>
                            </g>
                            <g id="screen">
                                <path id="outer" d="M438.9,609H263.8a31.62,31.62,0,0,1-31.5-31.5v-412A31.62,31.62,0,0,1,263.8,134H438.9a31.62,31.62,0,0,1,31.5,31.5v412A31.62,31.62,0,0,1,438.9,609Z" fill="none" stroke="#fff" stroke-miterlimit="10" opacity="0"></path>
                                <path opacity="0" stroke-miterlimit="10" stroke="#fff" fill="none" data-name="screen" id="screen-2" d="M452.9,201.7 v332.7 h-203.1 v-332.7 h203.1z"></path>
                                <path id="camera" d="M366.7,184H336a3.16,3.16,0,0,1-3.2-3.2h0a3.16,3.16,0,0,1,3.2-3.2h30.7a3.16,3.16,0,0,1,3.2,3.2h0A3.16,3.16,0,0,1,366.7,184Z" fill="none" stroke="#fff" stroke-miterlimit="10" opacity="0"></path>
                                <path id="speaker" d="M351.3,156.7h0a5.7,5.7,0,0,0-5.7,5.7h0a5.7,5.7,0,0,0,5.7,5.7h0a5.7,5.7,0,0,0,5.7-5.7h0A5.7,5.7,0,0,0,351.3,156.7Z" fill="none" stroke="#fff" stroke-miterlimit="10" opacity="0"></path>
                                <path id="body-bottom" d="M632.62,554H82.95c-7.21,0-33.15-4.8-33.15-10.8H666.91C667,549.2,639.83,554,632.62,554Z" fill="#fff" stroke="#dad9d9" stroke-miterlimit="10" opacity="0"></path>
                                <path id="body-top" d="M667,543.2H49.8v-.6c0-5.5,4-9.9,8.7-9.9H658.12c4.84,0,8.7,4.5,8.7,9.9v.6Z" fill="#fff" stroke="#dad9d9" stroke-miterlimit="10" opacity="0"></path>
                            </g>
                        </svg>