<?xml version="1.0" encoding="utf-8"?>
<!-- Generator: Adobe Illustrator 16.0.0, SVG Export Plug-In . SVG Version: 6.00 Build 0)  -->
<!DOCTYPE svg PUBLIC "-//W3C//DTD SVG 1.1//EN" "http://www.w3.org/Graphics/SVG/1.1/DTD/svg11.dtd">
<svg version="1.1" id="Layer_1" xmlns="http://www.w3.org/2000/svg" xmlns:xlink="http://www.w3.org/1999/xlink" x="0px" y="0px"
	 width="100px" height="100px" viewBox="0 0 100 100" enable-background="new 0 0 100 100" xml:space="preserve">
<g>
	<g>
		<path id="SVGID_1_" fill="#FFFFFF" d="M4.332,95.047h73.502c8.982,0,16.27-7.279,16.27-16.27v-6.061h-6.436v6.061
			c0,5.424-4.415,9.834-9.834,9.834H10.766V30.525c-0.243,0.031-0.491,0.051-0.74,0.061c-0.127,0.005-0.253,0.01-0.38,0.01
			c-0.715,0-1.431-0.081-2.125-0.233l-0.045-0.009H7.47c-1.141-0.264-2.196-0.72-3.139-1.339L4.332,95.047L4.332,95.047z
			 M27.989,5.275c0.938,1.465,1.491,3.209,1.542,5.09c0.011,0.451-0.005,0.902-0.061,1.343h58.198v13.353h6.436V5.275H27.989z"/>
	</g>
</g>
</svg>
